<svg width="170" height="190" viewBox="0 0 170 190" fill="none" xmlns="http://www.w3.org/2000/svg">
<path d="M84.466 104.816V189.754L18.5189 161.269L18.8335 76.6385L84.466 104.816Z" fill="#418DF9"/>
<path d="M84.467 104.867V189.804L150.093 162.304V76.9095L84.467 104.867Z" fill="#66A8FF"/>
<path d="M84.4661 104.816L150.413 77.1939L84.9841 48.1909L18.5189 76.5034L84.4661 104.816Z" fill="#F3F5F7"/>
<path d="M0.509798 91.6553L66.877 123.869C67.0553 123.956 67.2572 123.981 67.4515 123.942C67.6459 123.903 67.8219 123.801 67.9526 123.652L84.466 104.816L18.5189 76.5032L0.362099 90.1171C0.237948 90.2102 0.139816 90.3336 0.0771303 90.4756C0.0144447 90.6175 -0.0106878 90.7732 0.00414382 90.9277C0.0189755 91.0821 0.0732723 91.2302 0.161823 91.3576C0.250374 91.485 0.370203 91.5875 0.509798 91.6553Z" fill="#1676F3"/>
<path d="M150.413 77.1938L168.728 93.7526C168.84 93.8536 168.925 93.9809 168.975 94.123C169.025 94.265 169.039 94.4174 169.016 94.5661C168.992 94.7149 168.932 94.8554 168.84 94.975C168.748 95.0945 168.628 95.1892 168.49 95.2506L102.942 124.505C102.767 124.583 102.571 124.604 102.384 124.564C102.196 124.524 102.026 124.425 101.899 124.282L84.4658 104.816L150.413 77.1938Z" fill="#1676F3"/>
<path d="M84.9836 48.1909L150.597 77.1938L160.033 75.0067C160.218 74.9637 160.385 74.8633 160.51 74.7197C160.636 74.5761 160.712 74.3967 160.729 74.207C160.747 74.0174 160.704 73.8271 160.606 73.6633C160.509 73.4995 160.363 73.3706 160.188 73.2948L100.276 47.3348C100.145 47.2779 100.002 47.253 99.8595 47.262L84.9836 48.1909Z" fill="#1676F3"/>
<path d="M84.9839 48.1908L19.7389 76.6384L11.4911 75.2524C11.3001 75.2168 11.1257 75.1206 10.9936 74.9782C10.8615 74.8358 10.7787 74.6547 10.7575 74.4616C10.7363 74.2685 10.7778 74.0737 10.8758 73.906C10.9739 73.7383 11.1233 73.6066 11.3019 73.5304L72.6952 47.0722C72.8309 47.0145 72.9786 46.9908 73.1255 47.0032L84.9839 48.1908Z" fill="#1676F3"/>
<path d="M69.9291 31.4244C70.5627 31.124 71.0557 30.5903 71.305 29.9349C71.5543 29.2795 71.5407 28.5531 71.2669 27.9075L61.1661 4.08958C61.023 3.75221 60.8132 3.44725 60.5493 3.19305C60.2853 2.93884 59.9727 2.74064 59.6302 2.61036C59.2877 2.48008 58.9224 2.42041 58.5562 2.43494C58.19 2.44946 57.8306 2.53789 57.4995 2.69489L55.5535 3.61764C55.2224 3.77464 54.9264 3.99697 54.6834 4.27127C54.4405 4.54557 54.2555 4.86617 54.1395 5.2138C54.0236 5.56143 53.9792 5.92891 54.009 6.29414C54.0387 6.65937 54.142 7.01482 54.3126 7.33912L66.3594 30.2342C66.6859 30.8547 67.2397 31.3251 67.905 31.5469C68.5702 31.7688 69.2955 31.7249 69.9291 31.4244Z" fill="#1676F3"/>
<path d="M82.5929 29.1154C83.0514 29.0827 83.4796 28.8741 83.788 28.5332C84.0964 28.1922 84.2611 27.7453 84.2478 27.2857L83.7488 10.3295C83.7418 10.0893 83.6862 9.85304 83.5855 9.63488C83.4847 9.41673 83.341 9.22118 83.1627 9.06002C82.9845 8.89885 82.7756 8.77539 82.5484 8.69704C82.3212 8.6187 82.0806 8.58709 81.8409 8.60412L80.4321 8.70451C80.1925 8.72156 79.9588 8.78688 79.7451 8.89654C79.5314 9.00619 79.3421 9.15792 79.1885 9.34261C79.0349 9.52729 78.9202 9.74112 78.8514 9.97124C78.7825 10.2014 78.7609 10.443 78.7878 10.6817L80.6956 27.5377C80.7472 27.9947 80.9734 28.414 81.327 28.7081C81.6806 29.0021 82.1342 29.148 82.5929 29.1154Z" fill="#1676F3"/>
<path d="M92.3693 35.3835C93.6307 36.1128 95.4014 35.4436 96.3835 33.8662L113.823 5.85881C114.864 4.18567 114.618 2.14643 113.28 1.37293L111.415 0.294933C110.077 -0.478706 108.187 0.324611 107.256 2.06215L91.6818 31.1474C90.8047 32.7855 91.1079 34.6541 92.3693 35.3835Z" fill="#1676F3"/>
</svg>
