<svg width="14" height="15" viewBox="0 0 14 15" fill="none" xmlns="http://www.w3.org/2000/svg">
<path d="M5.4201 1.01209C5.82454 0.909426 6.08977 1.39165 5.86888 1.74009C5.29165 2.64928 4.98569 3.70424 4.98688 4.78119C4.98688 7.97085 7.62509 10.5562 10.8801 10.5562C11.7103 10.5575 12.5317 10.3859 13.292 10.0522C13.6723 9.88417 14.1257 10.2062 13.9671 10.5842C12.8844 13.1742 10.2866 14.998 7.25332 14.998C3.247 14.998 -0.000213623 11.8162 -0.000213623 7.89074C-0.000213623 4.58597 2.302 1.80776 5.4201 1.01209ZM5.4201 1.01209L5.55502 1.54083L5.86886 1.74008L5.55511 1.54119L5.60554 1.73881C5.35888 1.80175 5.11802 1.87845 4.88387 1.968M5.4201 1.01209L5.55418 1.5403L5.2357 1.3381C5.23561 1.33825 5.23552 1.33839 5.23543 1.33853M5.23543 1.33853C5.10612 1.54226 4.98882 1.75244 4.88387 1.968M5.23543 1.33853C5.18439 1.41904 5.18963 1.51447 5.23303 1.58802C5.25686 1.62842 5.30197 1.67951 5.37703 1.71423C5.45862 1.75197 5.54284 1.75472 5.60463 1.73904L5.55427 1.54065L5.23543 1.33853ZM4.88387 1.968C2.45688 2.89624 0.749786 5.20549 0.749786 7.89074C0.749786 11.3876 3.64675 14.248 7.25332 14.248C9.69956 14.248 11.8236 12.9296 12.9335 10.9882M4.88387 1.968C4.45851 2.84166 4.23586 3.80361 4.23688 4.78159C4.2371 8.39931 7.22506 11.3058 10.8794 11.3062C11.5779 11.3072 12.2708 11.1995 12.9335 10.9882M12.9335 10.9882C13.1572 10.9168 13.3775 10.8337 13.5934 10.7389C13.5175 10.7718 13.4392 10.757 13.3791 10.7115C13.3446 10.6854 13.296 10.6341 13.2685 10.549C13.2383 10.4558 13.2471 10.3623 13.2751 10.2949C13.1753 10.5335 13.0611 10.765 12.9335 10.9882Z" stroke="#8A91A8" stroke-width="1.5"/>
</svg>
