<?xml version="1.0" encoding="UTF-8"?>
<svg width="752pt" height="752pt" version="1.1" viewBox="0 0 752 752" xmlns="http://www.w3.org/2000/svg">
 <path d="m524 413h-295.99c-9.8125 0-19.223-3.8984-26.164-10.836-6.9375-6.9375-10.836-16.352-10.836-26.164s3.8984-19.223 10.836-26.16c6.9414-6.9375 16.352-10.836 26.164-10.836h295.99c9.8125 0 19.223 3.8984 26.16 10.836 6.9414 6.9375 10.836 16.348 10.836 26.16s-3.8945 19.227-10.836 26.164c-6.9375 6.9375-16.348 10.836-26.16 10.836zm37-184.99h-0.003906c0-9.8125-3.8945-19.223-10.836-26.164-6.9375-6.9375-16.348-10.836-26.16-10.836h-295.99c-9.8125 0-19.223 3.8984-26.164 10.836-6.9375 6.9414-10.836 16.352-10.836 26.164s3.8984 19.223 10.836 26.16c6.9414 6.9414 16.352 10.84 26.164 10.84h295.99c9.8125 0 19.223-3.8984 26.16-10.84 6.9414-6.9375 10.836-16.348 10.836-26.16zm0 295.99h-0.003906c0-9.8125-3.8945-19.223-10.836-26.164-6.9375-6.9375-16.348-10.836-26.16-10.836h-295.99c-9.8125 0-19.223 3.8984-26.164 10.836-6.9375 6.9414-10.836 16.352-10.836 26.164s3.8984 19.223 10.836 26.16c6.9414 6.9414 16.352 10.836 26.164 10.836h295.99c9.8125 0 19.223-3.8945 26.16-10.836 6.9414-6.9375 10.836-16.348 10.836-26.16z"/>
</svg>
